<svg xmlns="http://www.w3.org/2000/svg" width="2003.094" height="337.233" viewBox="0 0 2003.094 337.233">
  <path id="Path_1378" data-name="Path 1378" d="M1515.435,1216.348c-63.761-13.983-120.04-52.466-184.336-64.63-64.419-12.187-131.493-2.458-194.274,15.955-67.069,19.67-133.531,49.534-203.565,45.7-49.063-2.689-95.692-22.017-137.424-46.844a508.307,508.307,0,0,1-131.053-111.752c-35.489-42.757-66.977-93.836-120.283-113.34v334.8H2547.366L2547.594,939c-16.194,47.516-40.115,157.141-98.594,192-114.346,64.478-173-55-278,26C2010.2,1281.044,1676.176,1251.6,1515.435,1216.348Z" transform="translate(-544.5 -939)" fill="#fff"/>
</svg>
