<?xml version="1.0" encoding="utf-8"?>
<!-- Generator: Adobe Illustrator 23.0.4, SVG Export Plug-In . SVG Version: 6.00 Build 0)  -->
<svg version="1.1" id="Layer_1" xmlns="http://www.w3.org/2000/svg" xmlns:xlink="http://www.w3.org/1999/xlink" x="0px" y="0px"
	 viewBox="0 0 243 89" style="enable-background:new 0 0 243 89;" xml:space="preserve">
<style type="text/css">
	.st0{enable-background:new    ;}
	.st1{fill:#EA493D;}
</style>
<g class="st0">
	<path class="st1" d="M88.47,17.37c4.34,0,7.32,2.89,7.32,7.24c0,4.34-3.09,7.24-7.54,7.24H84.3v6.67h-4.42V17.37H88.47z
		 M84.3,28.38h2.99c2.53,0,4.01-1.35,4.01-3.76c0-2.4-1.46-3.75-4-3.75h-3V28.38z"/>
	<path class="st1" d="M98.04,22.8h4.13v2.83h0.09c0.56-1.99,1.89-3.08,3.74-3.08c0.5,0,0.92,0.07,1.22,0.16v3.76
		c-0.35-0.15-0.94-0.25-1.55-0.25c-2.11,0-3.34,1.29-3.34,3.5v8.77h-4.28V22.8z"/>
	<path class="st1" d="M107.87,30.64c0-5.08,3.08-8.17,7.78-8.17s7.78,3.08,7.78,8.17c0,5.17-3.03,8.2-7.78,8.2
		S107.87,35.8,107.87,30.64z M119.07,30.66c0-3.12-1.35-4.92-3.43-4.92s-3.44,1.8-3.44,4.92c0,3.15,1.33,4.92,3.44,4.92
		C117.74,35.58,119.07,33.8,119.07,30.66z"/>
	<path class="st1" d="M129.97,39.24c0,3.18-1.95,4.85-5.62,4.85c-0.34,0-0.98-0.03-1.17-0.06v-3.15c0.1,0.01,0.4,0.03,0.54,0.03
		c1.42,0,1.98-0.51,1.98-1.79V22.8h4.28V39.24z M125.55,18.86c0-1.25,1-2.21,2.29-2.21s2.29,0.97,2.29,2.21c0,1.23-1,2.21-2.29,2.21
		S125.55,20.09,125.55,18.86z"/>
	<path class="st1" d="M147.14,33.7c-0.47,3.08-3.28,5.14-7.16,5.14c-4.83,0-7.73-3.09-7.73-8.12c0-5.01,2.93-8.26,7.57-8.26
		c4.57,0,7.46,3.09,7.46,7.87v1.3h-10.83v0.26c0,2.24,1.42,3.78,3.6,3.78c1.57,0,2.77-0.78,3.16-1.98H147.14z M136.49,29.01h6.67
		c-0.09-2.01-1.39-3.38-3.3-3.38C137.98,25.63,136.64,27.05,136.49,29.01z"/>
	<path class="st1" d="M159.77,28.65c-0.25-1.66-1.35-2.83-3.11-2.83c-2.11,0-3.43,1.79-3.43,4.82c0,3.09,1.32,4.85,3.44,4.85
		c1.71,0,2.83-1.03,3.09-2.74h3.98c-0.22,3.71-2.99,6.09-7.12,6.09c-4.73,0-7.73-3.08-7.73-8.2c0-5.04,3-8.17,7.71-8.17
		c4.25,0,6.94,2.62,7.13,6.18H159.77z"/>
	<path class="st1" d="M171.24,19.19v3.62h2.9v3.22h-2.9v7.51c0,1.2,0.59,1.77,1.85,1.77c0.38,0,0.78-0.03,1.04-0.07v3.15
		c-0.44,0.1-1.17,0.18-2.04,0.18c-3.69,0-5.13-1.23-5.13-4.29v-8.25h-2.21V22.8h2.21v-3.62H171.24z"/>
	<path class="st1" d="M93.82,68.51V59.6H84.3v8.91h-4.42V47.37h4.42v8.58h9.52v-8.58h4.42v21.14H93.82z"/>
	<path class="st1" d="M100.82,60.64c0-5.08,3.08-8.17,7.78-8.17s7.78,3.08,7.78,8.17c0,5.17-3.03,8.2-7.78,8.2
		S100.82,65.8,100.82,60.64z M112.03,60.66c0-3.12-1.35-4.92-3.43-4.92s-3.44,1.8-3.44,4.92c0,3.15,1.33,4.92,3.44,4.92
		C110.69,65.58,112.03,63.8,112.03,60.66z"/>
	<path class="st1" d="M118.57,52.8h4.13v2.8h0.09c0.83-1.95,2.49-3.09,4.91-3.09c3.49,0,5.45,2.2,5.45,5.87v10.12h-4.28v-9.23
		c0-2.05-0.97-3.22-2.89-3.22s-3.13,1.41-3.13,3.44v9.01h-4.28V52.8z"/>
	<path class="st1" d="M150.19,63.7c-0.47,3.08-3.28,5.14-7.16,5.14c-4.83,0-7.73-3.09-7.73-8.12c0-5.01,2.93-8.26,7.57-8.26
		c4.57,0,7.46,3.09,7.46,7.87v1.3h-10.83v0.26c0,2.24,1.42,3.78,3.6,3.78c1.57,0,2.77-0.78,3.16-1.98H150.19z M139.54,59.01h6.67
		c-0.09-2.01-1.39-3.38-3.3-3.38C141.03,55.63,139.68,57.05,139.54,59.01z"/>
	<path class="st1" d="M152.69,74.28v-3.3c0.13,0.03,0.91,0.03,1.07,0.03c1.57,0,2.34-0.5,2.64-1.74c0-0.06,0.16-0.69,0.13-0.75
		l-5.46-15.72h4.7l3.34,12.28h0.07l3.34-12.28h4.51l-5.41,16.05c-1.35,4.03-3.31,5.46-7.32,5.46
		C154.16,74.32,152.82,74.31,152.69,74.28z"/>
	<path class="st1" d="M178.44,58.65c-0.25-1.66-1.35-2.83-3.11-2.83c-2.11,0-3.43,1.79-3.43,4.82c0,3.09,1.32,4.85,3.44,4.85
		c1.71,0,2.83-1.03,3.09-2.74h3.98c-0.22,3.71-2.99,6.09-7.12,6.09c-4.73,0-7.73-3.08-7.73-8.2c0-5.04,3-8.17,7.71-8.17
		c4.25,0,6.94,2.62,7.13,6.18H178.44z"/>
	<path class="st1" d="M183.92,60.64c0-5.08,3.08-8.17,7.78-8.17s7.78,3.08,7.78,8.17c0,5.17-3.03,8.2-7.78,8.2
		S183.92,65.8,183.92,60.64z M195.13,60.66c0-3.12-1.35-4.92-3.43-4.92s-3.44,1.8-3.44,4.92c0,3.15,1.33,4.92,3.44,4.92
		C193.79,65.58,195.13,63.8,195.13,60.66z"/>
	<path class="st1" d="M201.67,52.8h4.13v2.84h0.09c0.66-1.89,2.34-3.13,4.48-3.13c2.27,0,3.85,1.17,4.38,3.22h0.09
		c0.7-1.98,2.58-3.22,4.88-3.22c3.08,0,5.14,2.11,5.14,5.27v10.72h-4.28v-9.65c0-1.82-0.91-2.81-2.56-2.81
		c-1.63,0-2.7,1.19-2.7,2.93v9.54h-4.12v-9.79c0-1.68-0.95-2.68-2.53-2.68c-1.63,0-2.72,1.23-2.72,2.99v9.48h-4.28V52.8z"/>
	<path class="st1" d="M231.98,65.81h-0.09v2.7h-4.22V47.37h4.28v8.16h0.09c0.86-1.86,2.61-2.97,4.85-2.97c3.96,0,6.39,3.03,6.39,8.1
		c0,5.05-2.42,8.1-6.37,8.1C234.6,68.76,232.85,67.64,231.98,65.81z M231.94,60.66c0,2.84,1.41,4.66,3.49,4.66
		c2.14,0,3.47-1.79,3.47-4.66c0-2.86-1.35-4.67-3.47-4.67C233.36,55.98,231.94,57.84,231.94,60.66z"/>
</g>
<g id="Group_1" transform="translate(-104.05 -56.001)">
	<path id="Path_37" class="st1" d="M123.03,106.61l2.29,1.43l19-11.14l-0.13-22.02L125.05,64l-19,11.14l0.13,22.02l10.71,5.79
		l0.07-2.81l2.19-1.46l-8.08-4.37l-0.13-16.39l14.11-8.29l14.24,8.1l0.08,16.37l-14.11,8.29l-2.24,1.49"/>
	<path id="Path_38" class="st1" d="M144.17,94.4l-2.26-1.67l-19,11.14l0.13,22.02l19.13,10.89l19-11.14l-0.13-22.02l-9.57-5.29v2.38
		l-2.37,1.28l7.05,4.49l0.08,16.37l-14.11,8.29l-14.2-8.08l-0.13-16.39l14.18-8.6l2.19-1.28"/>
</g>
</svg>
