<svg xmlns="http://www.w3.org/2000/svg" width="716.251" height="828.599" viewBox="0 0 716.251 828.599">
  <g id="Group_48" data-name="Group 48" transform="translate(0 28.113)">
    <g id="Layer_6" data-name="Layer 6" transform="translate(0)">
      <path id="Path_391" data-name="Path 391" d="M1103.251,129.887,387,365.032v421.2l716.251,172.256Z" transform="translate(-387 -158)" fill="#fff"/>
    </g>
    <g id="Layer_7" data-name="Layer 7" transform="translate(168.276 106.201)">
      <path id="Path_392" data-name="Path 392" d="M597.375,242.711l104.06,597.318L518.949,825.071,501,828.063l17.949,5.983,210.906,13.462V834.046l44.874,5.983,2.992,17.949-198.94-14.958-5.235,8.227L809.88,864.709,694.907,210.284M768.746,804.13l-46.369-4.487L714.9,754.769l46.369,4.487ZM746.309,671.005l8.975,53.848H710.41l-10.47-53.848Zm-4.487-37.395L695.452,636.6l-8.975-44.874,46.369-1.5Zm-14.958-80.773-46.369,4.487-7.479-46.369,46.369-5.983ZM713.4,469.074l-44.874,8.975-7.479-35.9,44.874-10.47ZM699.94,392.789l-43.378,8.975-5.983-37.395,41.882-8.975ZM686.478,316.5,641.6,329.966l-14.958-68.806L674.511,247.7Z" transform="translate(-501 -229)"/>
    </g>
    <g id="Layer_3" data-name="Layer 3" transform="translate(186.741 67.31)">
      <path id="Path_393" data-name="Path 393" d="M647.848,203,594,223.941v8.975l53.848-20.941" transform="translate(-496.541 -203)"/>
      <path id="Path_394" data-name="Path 394" d="M647.865,236,600,255.445v7.479l47.865-16.454" transform="translate(-505.533 -186.639)"/>
      <path id="Path_395" data-name="Path 395" d="M656.865,270,609,289.445v7.479l47.865-16.454" transform="translate(-527.995 -169.782)"/>
      <path id="Path_396" data-name="Path 396" d="M661.865,304,614,323.445v7.479l47.865-16.454" transform="translate(-540.474 -152.926)"/>
      <path id="Path_397" data-name="Path 397" d="M668.7,338.884l-49.771,13.858-.853,7.43,49.43-10.886" transform="translate(-553.41 -135.631)"/>
      <path id="Path_398" data-name="Path 398" d="M676.615,377.852l-51.4,5.232-2.1,7.178,50.559-2.361" transform="translate(-568.861 -116.311)"/>
      <path id="Path_399" data-name="Path 399" d="M683.615,411.852l-51.4,5.232-2.1,7.178,50.559-2.361" transform="translate(-586.331 -99.454)"/>
      <path id="Path_400" data-name="Path 400" d="M687.615,445.852l-51.4,5.232-2.1,7.178,50.559-2.361" transform="translate(-596.314 -82.597)"/>
      <path id="Path_401" data-name="Path 401" d="M695.2,482.415l-51.659.763-2.712,6.97,50.574,2.025" transform="translate(-613.93 -64.47)"/>
      <path id="Path_402" data-name="Path 402" d="M704.371,518l-51.659.763L650,525.733l50.574,2.025" transform="translate(-636.828 -46.827)"/>
      <path id="Path_403" data-name="Path 403" d="M709.585,557.845l-50.369-2.551L657,560.99l49.482,4.829" transform="translate(-652.513 -28.337)"/>
      <path id="Path_404" data-name="Path 404" d="M712.585,591.845l-50.369-2.551L660,594.99l49.483,4.829" transform="translate(-660 -11.48)"/>
    </g>
    <g id="Layer_5" data-name="Layer 5" transform="translate(181.194 56.84)">
      <path id="Path_405" data-name="Path 405" d="M641.857,196,591,215.445v10.471l55.344-19.445Z" transform="translate(-485.003 -196)" fill="#d37a00"/>
      <path id="Path_406" data-name="Path 406" d="M646.857,229,596,248.445v10.471l55.344-19.445Z" transform="translate(-497.482 -179.639)" fill="#d37a00"/>
      <path id="Path_407" data-name="Path 407" d="M653.857,262,603,281.445v10.471l55.344-19.445Z" transform="translate(-514.953 -163.278)" fill="#d37a00"/>
      <path id="Path_408" data-name="Path 408" d="M660.857,298,610,315.5v9.423l1.491,1.568,53.853-19.069Z" transform="translate(-532.423 -145.43)" fill="#d37a00"/>
      <path id="Path_409" data-name="Path 409" d="M666.412,332.063,614.494,346.1V357.16l55.762-15.394Z" transform="translate(-543.109 -128.542)" fill="#d37a00"/>
      <path id="Path_410" data-name="Path 410" d="M676.8,371.037l-53.223,7.744-1.751,9.259,57.632-6.91Z" transform="translate(-564.213 -109.219)" fill="#d37a00"/>
      <path id="Path_411" data-name="Path 411" d="M681.535,405.666l-52.924,6.161-1.59,8.407,57.333-5.327Z" transform="translate(-576.892 -92.05)" fill="#d37a00"/>
      <path id="Path_412" data-name="Path 412" d="M687.93,441.105l-53.067,4.776-1.809,8.362,57.453-3.827Z" transform="translate(-592.069 -74.48)" fill="#d37a00"/>
      <path id="Path_413" data-name="Path 413" d="M696.077,476.607,642.8,476.7l-2.084,9.407h57.113Z" transform="translate(-610.166 -56.879)" fill="#d37a00"/>
      <path id="Path_414" data-name="Path 414" d="M702.077,512l-53.281.094-2.863,9.407h57.892Z" transform="translate(-625.141 -39.331)" fill="#d37a00"/>
      <path id="Path_415" data-name="Path 415" d="M709.077,551l-53.281.094-2.537,8.171,57.567,1.236Z" transform="translate(-642.611 -19.996)" fill="#d37a00"/>
      <path id="Path_416" data-name="Path 416" d="M717.385,585.526l-53.753-2.431-3.492,8.8,57.924,4.087Z" transform="translate(-660.139 -4.083)" fill="#d37a00"/>
    </g>
    <g id="Layer_2" data-name="Layer 2" transform="translate(167.528 13.462)">
      <path id="Path_417" data-name="Path 417" d="M701.638,167l14.958,7.479L592.445,881.986,573,874.507Z" transform="translate(-514.664 -167)"/>
      <path id="Path_418" data-name="Path 418" d="M737.663,189l14.958,4.487L635.949,848.642,618,847.146Z" transform="translate(-618 -156.093)"/>
    </g>
    <g id="Layer_4" data-name="Layer 4" transform="translate(154.066 13.462)">
      <path id="Path_419" data-name="Path 419" d="M720.612,167l-13.462,7.479L583,868.524l8.975,5.983Z" transform="translate(-520.177 -167)" fill="#eaa13d"/>
      <path id="Path_420" data-name="Path 420" d="M761.125,189l-13.462,7.479L628,841.163l13.462,5.983Z" transform="translate(-628 -156.093)" fill="#eaa13d"/>
    </g>
  </g>
</svg>
